<svg width="18" height="24" viewBox="0 0 18 24" fill="none" xmlns="http://www.w3.org/2000/svg">
<path fill-rule="evenodd" clip-rule="evenodd" d="M1.0508 7.15947C1.0508 7.15947 2.05743 9.65174 4.59415 14.3834C4.59415 14.3834 4.59415 14.3834 4.59415 14.4196C7.17113 19.1512 8.82202 21.2823 8.82202 21.2823C10.5132 22.9077 13.3317 23.6301 16.3516 22.3298C18.0025 21.6074 17.7207 19.9098 16.1906 17.0924C14.8216 14.564 13.2915 14.4918 12.2848 15.2864C12.0835 15.4309 11.4393 15.9727 11.399 16.1533C11.399 16.1533 10.795 17.0563 8.49989 12.758C6.20477 8.49591 7.13087 8.71262 7.13087 8.71262C7.29193 8.74874 8.17777 8.8571 8.41936 8.78486C9.70785 8.53203 10.7548 7.30395 9.26493 4.55885C7.73485 1.7415 6.44636 0.477307 4.79548 1.1997C2.29902 2.24718 0.688408 4.95616 1.0508 7.15947Z" stroke="#14143C"/>
</svg>
