<svg width="500" height="501" viewBox="0 0 500 501" fill="none" xmlns="http://www.w3.org/2000/svg">
<path d="M358.5 62.6391C357.069 63.116 356.116 63.116 354.685 63.5929C352.777 64.0698 350.393 65.0236 348.008 65.9773L347.055 66.4542L348.008 67.408C349.916 69.3156 351.824 71.2231 353.731 72.1769C364.223 78.8533 374.714 82.1915 386.159 81.2377C391.405 80.7608 397.128 80.7608 402.85 80.7608C407.619 80.7608 412.865 80.7608 418.111 81.2377C421.449 81.2377 424.787 82.1915 428.125 83.1453C429.556 83.6221 430.987 83.6221 432.417 84.099C432.417 84.099 432.417 84.099 432.894 84.099C428.602 71.7 415.726 61.2085 404.281 59.7778C396.174 58.8241 387.59 58.8241 375.668 59.7778C369.468 59.7778 363.746 61.2085 358.5 62.6391Z" fill="white" fill-opacity="0.05"/>
<path d="M94.7814 412.196C102.412 412.196 110.042 411.72 117.195 410.766C113.857 405.043 109.088 400.751 102.412 395.982C93.8276 390.26 83.813 388.829 73.3215 386.922H72.3677C66.1682 385.968 59.0149 385.014 52.3385 382.63C48.5234 381.676 44.7083 379.768 41.3701 377.861C39.9394 376.907 38.5088 376.43 37.0781 375.953C39.4626 384.06 43.2777 393.121 50.9078 399.797C57.5842 405.997 66.1682 407.905 74.7522 409.812C80.4748 411.72 87.1512 412.196 94.7814 412.196Z" fill="white" fill-opacity="0.05"/>
<path d="M149.15 434.606C150.104 434.606 150.58 434.129 151.534 434.129C150.104 432.699 149.15 431.268 147.719 430.314C136.751 421.73 125.305 418.392 111.953 418.869C102.415 419.346 91.9234 419.346 81.4319 418.869C78.0937 418.869 74.2786 417.915 70.9404 416.962C69.5097 416.485 68.0791 416.485 66.6484 416.008C71.4173 428.884 83.8163 439.375 97.1692 440.806C111.953 442.237 125.782 441.283 139.135 436.991C141.996 436.037 145.335 435.083 149.15 434.606Z" fill="white" fill-opacity="0.05"/>
<path d="M228.785 457.022C226.4 456.068 224.016 454.638 222.108 454.638C214.478 453.207 206.848 452.73 199.218 454.161C196.356 454.638 193.495 456.068 190.634 457.022C189.68 457.499 189.203 457.499 188.249 457.976C185.388 459.406 182.05 460.837 179.188 461.791C173.466 464.175 167.743 467.037 162.02 468.944C157.728 470.375 153.436 471.329 149.145 472.282C147.237 472.759 145.329 472.759 143.899 473.236C143.899 473.236 143.899 473.236 143.422 473.236C148.668 478.005 153.913 481.343 160.113 483.728C167.743 486.589 175.373 486.589 183.48 483.728C194.449 479.913 204.94 474.667 214.478 467.514C217.816 465.129 221.154 462.268 224.969 459.883L228.785 457.022Z" fill="white" fill-opacity="0.05"/>
<path d="M64.7352 149.431L65.689 152.292C69.0272 149.431 71.8885 145.616 74.2729 141.324C79.0418 131.309 81.4262 122.248 80.9493 112.71C80.4725 101.742 80.4725 91.2506 80.9493 82.6666C80.9493 79.3284 81.9031 75.9902 82.38 72.652C82.8569 71.2213 82.8569 69.7907 83.3338 68.8369C83.3338 68.36 83.3338 67.8831 83.8107 67.4062C67.1196 75.0364 59.0126 87.4355 58.5357 104.603C58.0588 116.526 59.4895 127.494 62.3508 137.985C62.8277 141.324 63.7814 145.139 64.7352 149.431Z" fill="white" fill-opacity="0.05"/>
<path d="M34.2141 219.535C36.1216 222.397 38.506 225.258 40.8905 228.119L42.3211 230.027C45.1825 224.781 46.1362 220.012 46.1362 215.72C47.09 206.182 45.1824 196.645 40.8905 188.061C36.5985 179 32.7834 170.416 29.9221 162.309C28.4914 158.494 27.5377 154.202 27.0608 150.387C26.5839 148.479 26.5839 147.048 26.107 145.141C26.107 145.141 26.107 145.141 26.107 144.664C20.3844 150.387 16.5693 157.54 14.1848 166.124C12.2773 173.754 14.1848 180.907 16.5693 188.061C20.3844 200.46 28.0145 211.428 34.2141 219.535Z" fill="white" fill-opacity="0.05"/>
<path d="M483.917 213.813C473.902 203.799 461.98 196.645 448.627 189.492C448.627 189.969 448.627 190.446 448.627 190.923C448.627 193.784 448.15 196.645 449.104 199.507C451.965 210.952 456.257 219.059 462.457 225.259C464.841 227.643 467.702 230.028 470.087 232.412C473.902 236.227 478.194 239.565 482.009 243.857C485.824 247.672 488.685 252.441 492.024 256.733V257.21C493.454 259.118 494.408 260.548 495.839 262.456C495.839 262.456 495.839 262.456 495.839 262.933C498.223 255.779 499.654 250.057 499.177 244.334C498.7 230.028 491.07 220.967 483.917 213.813Z" fill="white" fill-opacity="0.05"/>
<path d="M432.895 348.774V348.297C429.557 351.158 427.172 354.496 424.788 358.788C419.542 369.28 417.158 378.341 418.111 387.878C418.588 396.462 419.065 405.523 418.588 414.584C418.588 418.876 417.634 423.168 416.681 426.983C416.204 428.414 416.204 430.321 415.727 431.752C415.727 432.229 415.727 432.706 415.25 433.183C428.603 427.937 438.617 415.538 440.048 403.139C441.479 390.263 440.525 378.341 437.664 366.895C436.233 360.219 434.802 354.02 432.895 348.774Z" fill="white" fill-opacity="0.05"/>
<path d="M394.739 398.37C390.447 405.523 389.016 413.154 387.586 421.261C387.109 423.168 387.109 425.076 386.632 426.983C384.724 436.044 382.34 444.628 379.955 453.212L379.479 455.596C379.002 457.981 378.048 459.888 376.617 462.273C378.525 461.796 379.955 461.796 381.386 461.319C395.216 456.073 403.8 447.489 407.615 435.09C412.861 417.446 412.384 399.324 410.476 382.633C402.846 386.448 398.077 393.124 394.739 398.37Z" fill="white" fill-opacity="0.05"/>
<path d="M403.328 87.9141C395.698 87.9141 388.067 88.391 380.914 88.8678C384.252 94.5905 389.021 99.3594 396.174 103.651C404.758 109.374 414.773 110.805 425.265 112.235L427.649 112.712C432.418 113.189 437.187 114.143 441.956 115.573C445.771 116.527 449.586 118.435 453.401 119.865C454.831 120.342 456.739 121.296 458.17 121.773C459.123 122.25 460.077 122.727 461.508 123.204C459.6 116.05 457.693 110.805 454.355 106.036C446.724 95.0674 435.279 91.7292 425.265 89.8216C418.111 88.391 411.435 87.9141 403.328 87.9141Z" fill="white" fill-opacity="0.05"/>
<path d="M448.631 310.617C444.816 315.863 442.432 321.109 441.478 326.354C439.57 336.846 439.57 345.907 442.432 354.491C443.385 357.829 443.862 361.644 444.816 364.982C445.293 367.844 445.77 370.228 446.247 373.089C448.154 381.196 448.631 389.78 448.154 397.41C453.4 393.595 457.692 389.78 460.553 384.535C465.799 375.951 467.707 366.89 465.799 355.444C463.415 343.999 455.308 321.586 448.631 310.617Z" fill="white" fill-opacity="0.05"/>
<path d="M321.301 37.3671C326.07 34.9827 331.316 33.0751 336.561 31.1676C340.853 29.7369 345.145 28.7832 348.96 27.8294C350.868 27.3525 352.299 27.3525 354.206 26.8756H354.683C346.576 19.2454 337.515 14.9534 326.547 14.4766C323.208 14.4766 319.393 15.4303 316.055 16.3841H315.578C301.272 20.1992 288.873 28.7832 278.858 35.9365C275.997 37.844 273.612 40.2284 270.751 42.136L269.32 43.0897H269.797C272.182 44.0435 273.612 44.5204 275.52 44.9973C282.673 46.9048 290.303 47.3817 298.41 45.4742C302.226 44.5204 306.041 43.5666 310.333 41.6591C313.671 40.2284 317.486 38.7978 320.824 37.3671H321.301Z" fill="white" fill-opacity="0.05"/>
<path d="M473.434 294.407C469.619 288.684 465.327 282.962 461.512 277.716C460.081 275.808 458.651 273.901 457.22 271.993C456.743 271.516 456.743 271.039 456.266 270.562C452.928 277.716 451.974 284.869 452.451 294.407C452.928 302.514 456.266 310.144 459.604 317.297L460.081 318.251C462.943 324.928 466.281 331.604 468.665 338.28C470.096 343.049 471.05 347.818 472.003 352.587C472.003 353.541 472.48 354.971 472.48 355.925C481.064 348.295 486.787 332.081 484.402 322.066C482.018 310.621 478.68 301.56 473.434 294.407Z" fill="white" fill-opacity="0.05"/>
<path d="M142.47 67.409C144.378 65.0246 145.331 61.6864 146.285 58.3482C146.762 56.9175 147.239 55.9637 147.239 54.5331C151.531 41.6572 156.777 28.3043 165.837 17.3359C163.93 17.3359 162.022 17.8128 160.592 17.8128C145.331 19.7204 134.363 27.8274 127.686 43.0878C122.918 53.1024 120.056 65.0246 118.626 77.9005C118.149 80.7618 117.672 84.1001 117.672 86.9614V88.392C120.533 87.4383 124.825 85.5307 126.733 84.1C132.932 78.3774 138.178 73.1317 142.47 67.409Z" fill="white" fill-opacity="0.05"/>
<path d="M101.455 105.561C106.701 97.4539 110.039 88.3931 111.47 78.3784C111.946 75.0402 112.423 71.702 113.377 68.3638C113.854 65.5025 114.808 62.1643 115.285 59.303C116.238 53.1035 118.623 47.8577 120.53 42.612C121.007 41.1813 121.484 39.7506 122.438 38.7969C115.285 40.7044 110.039 42.612 105.27 45.9502C94.3017 53.5804 90.9635 65.0256 89.056 75.5171C86.1946 89.8237 87.1484 104.607 88.5791 118.437C93.3479 114.622 97.6399 110.807 101.455 105.561Z" fill="white" fill-opacity="0.05"/>
<path d="M52.3371 375.474C61.8748 378.812 72.3663 380.243 82.381 381.196H83.3347C84.7654 381.196 86.6729 381.673 88.1036 381.673C87.6267 379.766 86.6729 378.335 85.7192 376.904C79.5196 365.936 70.4588 358.306 59.0135 354.014C57.106 353.06 55.1984 352.583 53.2909 351.63C49.4758 350.199 44.7069 348.291 40.415 346.861C32.3079 343.999 24.6777 339.707 16.0938 333.508C16.5706 347.814 21.3395 358.306 31.3541 365.936C37.0767 370.228 43.7532 372.613 49.9527 374.997L52.3371 375.474Z" fill="white" fill-opacity="0.05"/>
<path d="M324.166 43.5621C318.921 45.9466 314.152 48.331 309.383 50.7154C314.629 54.5305 319.874 56.915 326.074 58.3456C329.889 58.8225 333.227 59.2994 337.042 59.2994C344.196 59.2994 351.826 57.8687 360.41 55.4843C372.809 51.6692 383.777 50.7154 393.792 51.1923C394.269 51.1923 394.745 51.1923 395.222 51.1923C390.93 45.4697 386.162 40.7008 380.439 37.3626C375.193 34.0244 368.994 32.5938 362.317 32.5938C358.979 32.5938 355.641 33.0706 351.826 33.5475C342.765 35.932 333.227 39.2702 324.166 43.5621Z" fill="white" fill-opacity="0.05"/>
<path d="M42.3237 306.328C44.7081 307.758 46.6157 308.712 49.0001 310.143L49.9539 310.62C50.4307 307.758 50.4307 303.466 49.9539 300.605C48.0463 292.021 44.2312 284.391 38.5086 277.714C34.2166 272.946 29.9246 269.13 25.1558 264.838C24.202 263.885 23.2482 262.931 22.2944 261.977C14.1874 254.347 7.98785 246.717 3.21898 238.133C-2.50365 251.486 -0.596105 268.177 8.94162 279.145C17.0487 289.637 28.0171 298.221 42.3237 306.328Z" fill="white" fill-opacity="0.05"/>
<path d="M425.737 119.868C421.922 119.392 417.63 118.915 413.338 118.438L410 117.961C410 118.438 410 118.438 410.477 118.915C413.815 127.499 420.015 133.698 426.214 138.944C431.937 143.713 439.09 146.097 445.766 148.482C447.197 148.959 448.151 149.435 449.582 149.912C459.119 153.251 471.041 158.019 482.01 166.603C481.056 149.912 474.857 138.944 462.458 131.791C451.966 125.591 440.521 122.253 425.737 119.868Z" fill="white" fill-opacity="0.05"/>
<path d="M49.9511 189.488C53.7662 184.719 56.1506 179.473 57.1044 174.228C59.0119 164.69 59.0119 156.583 57.5813 149.43C57.1044 147.045 56.6275 145.138 55.6737 143.23C54.7199 140.369 54.2431 137.507 53.2893 134.169C51.3817 124.631 49.4742 114.14 50.428 103.648C45.1822 106.987 41.3671 111.279 38.0289 116.047C31.8294 125.108 30.3987 135.6 33.7369 149.906C37.0751 164.69 43.7516 178.043 49.9511 189.488Z" fill="white" fill-opacity="0.05"/>
<path d="M353.256 439.855C351.825 442.717 350.871 446.055 349.918 448.916C348.487 453.685 346.579 457.977 344.672 462.746C342.287 467.515 339.426 472.284 336.565 476.576C335.611 478.483 334.18 480.391 333.227 482.298C335.611 482.298 339.426 482.298 341.811 481.821C354.686 478.96 363.747 472.284 369.47 460.838C376.623 446.532 379.008 430.795 380.915 417.442C381.392 415.534 381.392 413.627 381.392 411.719V411.242C368.039 416.011 358.978 426.026 353.256 439.855Z" fill="white" fill-opacity="0.05"/>
<path d="M173.463 442.243C169.171 441.289 164.879 440.812 160.587 440.812C154.388 440.812 147.711 441.766 140.558 443.674C128.636 447.012 117.667 448.443 107.176 448.443C105.745 448.443 103.838 448.443 102.407 448.443C101.93 448.443 101.93 448.443 101.453 448.443C103.838 452.258 106.699 455.119 110.037 457.98C119.575 465.611 130.066 467.995 142.942 466.087C159.633 463.226 174.894 456.073 187.77 449.396C183.954 445.581 179.186 443.674 173.463 442.243Z" fill="white" fill-opacity="0.05"/>
<path d="M308.423 449.391C305.085 449.391 302.224 449.868 299.362 450.345C292.209 451.775 285.533 454.637 279.333 459.406C276.472 461.79 273.611 464.651 271.226 467.036C270.272 468.466 268.842 469.42 267.888 470.851C266.457 472.281 265.027 473.712 263.596 475.143C260.258 478.481 257.396 481.819 253.581 485.157C250.243 488.019 246.428 490.88 242.613 493.264C241.182 494.218 239.275 495.649 237.844 496.603C237.844 496.603 237.844 496.603 237.367 496.603C244.52 498.987 250.243 500.418 255.966 499.941C268.842 499.464 277.903 492.311 287.917 481.819C296.978 471.805 303.654 460.359 309.854 448.914C309.377 448.914 308.9 448.914 308.423 449.391Z" fill="white" fill-opacity="0.05"/>
<path d="M196.356 50.7169C202.079 50.24 207.325 48.3324 214.001 44.0405C217.816 41.656 221.155 39.2716 223.539 36.8872C226.877 33.549 230.692 29.7339 234.03 26.3957C238.322 22.1037 242.614 17.3348 247.383 13.0428C250.245 10.1815 253.583 8.27398 256.444 6.36643C257.875 5.41266 259.305 4.45889 260.736 3.50511C260.736 3.50511 260.736 3.50511 261.213 3.50511C253.106 0.166908 245.476 -0.786862 237.369 0.643797C228.308 2.07446 221.155 7.79709 215.909 12.566C203.987 23.5343 196.356 36.8872 189.203 49.7631C191.111 50.24 194.449 50.7169 196.356 50.7169Z" fill="white" fill-opacity="0.05"/>
<path d="M459.597 232.408C458.644 231.454 457.213 230.501 456.259 229.547V230.024C455.782 232.408 455.305 234.793 455.305 237.177C454.828 250.053 458.644 261.975 466.751 271.99C472.473 279.143 477.242 286.773 482.011 293.927C483.919 297.265 485.349 300.603 486.78 304.418C487.257 305.849 487.734 307.279 488.687 308.71C488.687 309.187 489.164 309.664 489.164 310.141C492.503 304.895 494.887 299.649 495.841 293.927C497.748 283.912 495.364 274.374 488.211 262.929C480.58 251.484 471.043 242.423 459.597 232.408Z" fill="white" fill-opacity="0.05"/>
<path d="M269.796 457.501C266.935 457.024 261.689 456.07 257.874 456.07C257.397 456.07 256.443 456.07 255.967 456.07C244.998 457.501 235.937 460.839 228.784 466.562C223.061 471.331 218.293 474.669 213.047 477.53C206.847 480.868 200.648 484.207 194.925 487.545C193.018 488.499 191.587 489.452 190.156 490.406C194.925 493.267 200.171 495.652 205.894 496.606C215.908 498.513 225.446 496.129 236.891 488.975C249.29 480.868 258.828 469.9 267.412 460.362L269.796 457.501Z" fill="white" fill-opacity="0.05"/>
<path d="M36.1229 265.793C38.0304 267.224 39.4611 268.655 41.3686 270.085L41.8455 270.562C43.2762 264.363 43.7531 258.64 42.3224 252.441C40.4149 242.903 36.5998 234.796 30.8771 227.642C26.1083 221.443 21.3394 214.29 16.5706 207.136C14.663 203.798 12.7555 199.506 11.3248 196.168C10.8479 194.737 9.89414 193.307 9.41726 191.399C9.41726 190.922 8.94037 190.922 8.94037 190.445C0.8333 202.367 -0.597363 219.059 5.60216 230.504C12.7555 242.426 22.2932 253.394 36.1229 265.793Z" fill="white" fill-opacity="0.05"/>
<path d="M228.789 42.6128C234.989 44.0435 240.711 44.5204 246.911 43.0897C256.925 41.1822 264.556 37.3671 271.709 32.1213C277.908 27.3525 284.585 22.5836 292.692 17.8147C296.03 15.9072 299.845 14.4765 303.183 13.0459C304.614 12.569 306.045 12.0921 307.475 11.1383C307.952 10.6614 308.906 10.6614 309.383 10.1845C303.183 5.89256 294.599 3.03125 286.015 3.03125C280.293 3.03125 275.047 3.98502 271.232 6.36945C259.31 12.569 248.341 21.1529 236.419 34.5058C234.512 36.8902 232.604 39.2746 230.22 41.659L228.789 42.6128Z" fill="white" fill-opacity="0.05"/>
<path d="M438.613 153.72L432.891 151.812C432.891 152.289 432.891 152.289 432.891 152.766C435.275 165.165 442.428 175.657 453.874 183.764C457.689 186.625 461.981 189.01 466.273 191.871C467.703 192.825 468.657 193.302 470.088 194.255C479.626 199.978 486.779 206.178 492.978 213.331L493.455 213.808C493.932 212.854 493.932 211.9 493.932 211.423C495.84 195.209 491.071 182.333 478.672 173.272C468.18 165.165 455.781 159.443 438.613 153.72Z" fill="white" fill-opacity="0.05"/>
<path d="M60.444 346.385C61.8747 346.862 63.7822 347.339 65.6898 347.816H66.1666C65.6898 344 64.736 340.185 62.8285 336.37C57.5827 326.356 50.9063 318.725 42.3223 313.957C34.6922 309.665 27.5389 305.373 20.8624 300.127C17.0474 297.266 13.7091 293.927 10.3709 290.589C8.94028 289.159 7.50962 287.728 6.07897 286.774C5.60208 286.297 5.60208 286.297 5.12519 285.82C4.17142 291.543 3.69453 298.696 6.07897 306.326C8.4634 314.434 13.2323 321.11 19.9087 325.879C29.9233 334.463 42.7992 340.662 60.444 346.385Z" fill="white" fill-opacity="0.05"/>
<path d="M213.05 5.89127C209.711 5.41438 206.85 4.9375 203.989 4.9375C201.604 4.9375 199.22 4.93749 197.312 5.41438C186.821 7.32192 179.191 12.0908 172.514 20.6747C162.023 34.9813 156.3 50.7186 151.531 65.0252C154.869 65.0252 160.115 64.5483 162.5 63.1176C172.514 57.8719 180.144 51.1955 184.913 43.0884C186.344 40.2271 188.252 37.8427 189.682 34.9813C191.113 32.5969 192.543 30.2125 193.974 28.3049C198.743 19.721 204.943 12.5677 213.05 5.89127Z" fill="white" fill-opacity="0.05"/>
<path d="M310.814 461.793C304.137 473.238 296.984 484.683 286.016 494.221C289.354 494.698 292.215 495.175 295.076 495.175C299.368 495.175 303.66 494.698 307.476 493.267C315.583 490.406 322.259 485.16 328.459 476.576C337.042 464.177 342.288 450.347 346.103 438.902C346.58 437.471 347.057 435.564 347.534 433.656C341.811 434.61 336.566 436.518 331.32 439.379C323.213 444.625 316.536 451.778 310.814 461.793Z" fill="white" fill-opacity="0.05"/>
</svg>
